<?xml version="1.0" encoding="utf-8"?>
<svg viewBox="0 0 45 81" width="45" height="81" xmlns="http://www.w3.org/2000/svg">
  <g id="schematic" gorn="0.2" transform="matrix(0.087165, 0, 0, 0.088769, 0.201535, 0.319697)" style="">
    <rect y="6.25" fill="none" stroke-width="12.5" stroke="#000000" width="293.75" height="887.5" stroke-linecap="round" stroke-linejoin="round" x="200"/>
    <text y="351.389" fill="#000000" stroke="none" text-anchor="middle" font-size="48.6111" font-family="'Droid Sans'" id="label" gorn="0.2.1" x="350" style="white-space: pre;">RFID RC522</text>
    <line y2="100" fill="none" x2="200" stroke-width="9.7222" stroke="#787878" y1="100" x1="4.8611" stroke-linecap="round" stroke-linejoin="round"/>
    <rect y="95.1389" connectorname="IRQ" fill="none" stroke-width="0" width="200" height="9.7222" id="connector0pin" gorn="0.2.3" x="0"/>
    <rect y="95.1389" fill="none" stroke-width="0" width="0" height="9.7222" id="connector0terminal" gorn="0.2.4" x="0"/>
    <text y="515.214" fill="#8c8c8c" stroke="none" text-anchor="start" font-size="48.6111" font-family="'Droid Sans'" id="label0" gorn="0.2.5" x="226.818" style="white-space: pre; font-size: 48.6px;">IRQ</text>
    <text y="85.4167" fill="#8c8c8c" stroke-width="0" stroke="none" text-anchor="middle" font-size="34.7222" font-family="Droid Sans" class="text" x="100" style="white-space: pre;">1</text>
    <line y2="200" fill="none" x2="200" stroke-width="9.7222" stroke="#787878" y1="200" x1="4.8611" stroke-linecap="round" stroke-linejoin="round"/>
    <rect y="195.139" connectorname="NSS" fill="none" stroke-width="0" width="200" height="9.7222" id="connector1pin" gorn="0.2.8" x="0"/>
    <rect y="195.139" fill="none" stroke-width="0" width="0" height="9.7222" id="connector1terminal" gorn="0.2.9" x="0"/>
    <text y="185.417" fill="#8c8c8c" stroke-width="0" stroke="none" text-anchor="middle" font-size="34.7222" font-family="Droid Sans" class="text" x="100" style="white-space: pre;">2</text>
    <line y2="300" fill="none" x2="200" stroke-width="9.7222" stroke="#787878" y1="300" x1="4.8611" stroke-linecap="round" stroke-linejoin="round"/>
    <rect y="295.139" connectorname="SCK" fill="none" stroke-width="0" width="200" height="9.7222" id="connector2pin" gorn="0.2.13" x="0"/>
    <rect y="295.139" fill="none" stroke-width="0" width="0" height="9.7222" id="connector2terminal" gorn="0.2.14" x="0"/>
    <text y="217.401" fill="#8c8c8c" stroke="none" text-anchor="start" font-size="48.6111" font-family="'Droid Sans'" id="label2" gorn="0.2.15" x="210.226" style="white-space: pre; font-size: 48.6px;">SCK</text>
    <text y="285.417" fill="#8c8c8c" stroke-width="0" stroke="none" text-anchor="middle" font-size="34.7222" font-family="Droid Sans" class="text" x="100" style="white-space: pre;">3</text>
    <line y2="400" fill="none" x2="200" stroke-width="9.7222" stroke="#787878" y1="400" x1="4.8611" stroke-linecap="round" stroke-linejoin="round"/>
    <rect y="395.139" connectorname="MOSI" fill="none" stroke-width="0" width="200" height="9.7222" id="connector3pin" gorn="0.2.18" x="0"/>
    <rect y="395.139" fill="none" stroke-width="0" width="0" height="9.7222" id="connector3terminal" gorn="0.2.19" x="0"/>
    <text y="322.831" fill="#8c8c8c" stroke="none" text-anchor="start" font-size="48.6111" font-family="'Droid Sans'" id="label3" gorn="0.2.20" x="215.757" style="white-space: pre; font-size: 48.6px;">MOSI</text>
    <text y="385.417" fill="#8c8c8c" stroke-width="0" stroke="none" text-anchor="middle" font-size="34.7222" font-family="Droid Sans" class="text" x="100" style="white-space: pre;">4</text>
    <line y2="500" fill="none" x2="200" stroke-width="9.7222" stroke="#787878" y1="500" x1="4.8611" stroke-linecap="round" stroke-linejoin="round"/>
    <rect y="495.139" connectorname="MISO" fill="none" stroke-width="0" width="200" height="9.7222" id="connector4pin" gorn="0.2.23" x="0"/>
    <rect y="495.139" fill="none" stroke-width="0" width="0" height="9.7222" id="connector4terminal" gorn="0.2.24" x="0"/>
    <text y="411.97" fill="#8c8c8c" stroke="none" text-anchor="start" font-size="48.6111" font-family="'Droid Sans'" id="label4" gorn="0.2.25" x="217.6" style="white-space: pre; font-size: 48.6px;">MISO</text>
    <text y="485.417" fill="#8c8c8c" stroke-width="0" stroke="none" text-anchor="middle" font-size="34.7222" font-family="Droid Sans" class="text" x="100" style="white-space: pre;">5</text>
    <line y2="600" fill="none" x2="200" stroke-width="9.7222" stroke="#787878" y1="600" x1="4.8611" stroke-linecap="round" stroke-linejoin="round"/>
    <rect y="595.139" connectorname="GND" fill="none" stroke-width="0" width="200" height="9.7222" id="connector5pin" gorn="0.2.28" x="0"/>
    <rect y="595.139" fill="none" stroke-width="0" width="0" height="9.7222" id="connector5terminal" gorn="0.2.29" x="0"/>
    <text y="620.583" fill="#8c8c8c" stroke="none" text-anchor="start" font-size="48.6111" font-family="'Droid Sans'" id="label5" gorn="0.2.30" x="221.287" style="white-space: pre; font-size: 48.6px;">GND</text>
    <text y="585.417" fill="#8c8c8c" stroke-width="0" stroke="none" text-anchor="middle" font-size="34.7222" font-family="Droid Sans" class="text" x="100" style="white-space: pre;">6</text>
    <line y2="700" fill="none" x2="200" stroke-width="9.7222" stroke="#787878" y1="700" x1="4.8611" stroke-linecap="round" stroke-linejoin="round"/>
    <rect y="695.139" connectorname="RST" fill="none" stroke-width="0" width="200" height="9.7222" id="connector6pin" gorn="0.2.33" x="0"/>
    <rect y="695.139" fill="none" stroke-width="0" width="0" height="9.7222" id="connector6terminal" gorn="0.2.34" x="0"/>
    <text y="716.963" fill="#8c8c8c" stroke="none" text-anchor="start" font-size="48.6111" font-family="'Droid Sans'" id="label6" gorn="0.2.35" x="223.13" style="white-space: pre; font-size: 48.6px;">RST</text>
    <text y="685.417" fill="#8c8c8c" stroke-width="0" stroke="none" text-anchor="middle" font-size="34.7222" font-family="Droid Sans" class="text" x="100" style="white-space: pre;">7</text>
    <line y2="800" fill="none" x2="200" stroke-width="9.7222" stroke="#787878" y1="800" x1="4.8611" stroke-linecap="round" stroke-linejoin="round"/>
    <rect y="795.139" connectorname="VCC" fill="none" stroke-width="0" width="200" height="9.7222" id="connector7pin" gorn="0.2.38" x="0"/>
    <rect y="795.139" fill="none" stroke-width="0" width="0" height="9.7222" id="connector7terminal" gorn="0.2.39" x="0"/>
    <text y="809.722" fill="#8c8c8c" stroke="none" text-anchor="start" font-size="48.6111" font-family="'Droid Sans'" id="label7" gorn="0.2.40" x="219.444" style="white-space: pre;">VCC</text>
    <text y="785.417" fill="#8c8c8c" stroke-width="0" stroke="none" text-anchor="middle" font-size="34.7222" font-family="Droid Sans" class="text" x="100" style="white-space: pre;">8</text>
    <path d="M 225.407 119.113 C 223.234 119.113 221.14 118.793 219.127 118.153 C 217.114 117.513 215.187 116.53 213.347 115.203 L 213.347 107.563 L 217.107 107.563 L 217.917 113.193 C 218.984 113.846 220.14 114.353 221.387 114.713 C 222.627 115.073 223.967 115.253 225.407 115.253 C 227.047 115.253 228.437 115.003 229.577 114.503 C 230.71 114.003 231.58 113.313 232.187 112.433 C 232.794 111.546 233.097 110.513 233.097 109.333 C 233.097 108.24 232.837 107.273 232.317 106.433 C 231.79 105.6 230.924 104.866 229.717 104.233 C 228.517 103.606 226.877 103.056 224.797 102.583 C 222.344 102.01 220.267 101.243 218.567 100.283 C 216.874 99.323 215.59 98.16 214.717 96.793 C 213.837 95.426 213.397 93.86 213.397 92.093 C 213.397 90.226 213.894 88.556 214.887 87.083 C 215.88 85.61 217.26 84.446 219.027 83.593 C 220.794 82.74 222.857 82.313 225.217 82.313 C 227.717 82.313 229.93 82.696 231.857 83.463 C 233.784 84.223 235.367 85.143 236.607 86.223 L 236.607 93.373 L 232.857 93.373 L 232.047 88.263 C 231.307 87.67 230.387 87.176 229.287 86.783 C 228.194 86.39 226.837 86.193 225.217 86.193 C 223.837 86.193 222.624 86.436 221.577 86.923 C 220.53 87.403 219.714 88.08 219.127 88.953 C 218.534 89.82 218.237 90.843 218.237 92.023 C 218.237 93.05 218.504 93.95 219.037 94.723 C 219.57 95.49 220.437 96.163 221.637 96.743 C 222.844 97.33 224.454 97.876 226.467 98.383 C 230.234 99.316 233.087 100.696 235.027 102.523 C 236.967 104.343 237.937 106.596 237.937 109.283 C 237.937 111.203 237.42 112.903 236.387 114.383 C 235.354 115.863 233.9 117.02 232.027 117.853 C 230.154 118.693 227.947 119.113 225.407 119.113 ZM 256.252 118.593 L 242.012 118.593 L 242.012 115.503 L 246.012 114.813 L 246.012 86.643 L 242.012 85.953 L 242.012 82.833 L 246.012 82.833 L 256.012 82.833 C 259.172 82.833 261.925 83.586 264.272 85.093 C 266.625 86.6 268.455 88.67 269.762 91.303 C 271.075 93.943 271.732 96.956 271.732 100.343 L 271.732 101.103 C 271.732 104.41 271.102 107.386 269.842 110.033 C 268.582 112.68 266.792 114.766 264.472 116.293 C 262.152 117.826 259.412 118.593 256.252 118.593 Z M 250.852 86.643 L 250.852 114.813 L 256.012 114.813 C 258.272 114.813 260.212 114.193 261.832 112.953 C 263.452 111.72 264.702 110.066 265.582 107.993 C 266.455 105.926 266.892 103.63 266.892 101.103 L 266.892 100.293 C 266.892 97.693 266.455 95.363 265.582 93.303 C 264.702 91.25 263.452 89.626 261.832 88.433 C 260.212 87.24 258.272 86.643 256.012 86.643 L 250.852 86.643 ZM 283.428 118.593 L 273.188 118.593 L 273.188 115.503 L 275.838 115.133 L 288.338 82.833 L 292.488 82.833 L 304.768 115.133 L 307.398 115.503 L 307.398 118.593 L 297.138 118.593 L 297.138 115.503 L 299.838 115.033 L 297.478 108.453 L 283.158 108.453 L 280.728 115.033 L 283.428 115.503 L 283.428 118.593 Z M 290.008 89.853 L 284.658 104.393 L 296.008 104.393 L 290.748 89.853 L 290.458 89.043 L 290.308 89.043 L 290.008 89.853 Z" transform="matrix(1, 0, 0, 1, 0, 0)" style="fill: rgb(51, 51, 51); paint-order: fill; stroke: rgb(153, 190, 29); stroke-opacity: 0; white-space: pre;"/>
  </g>
</svg>