<?xml version='1.0' encoding='UTF-8' standalone='no'?>
<!-- Generator: Adobe Illustrator 15.1.0, SVG Export Plug-In . SVG Version: 6.00 Build 0)  -->
<svg xmlns="http://www.w3.org/2000/svg" xmlns:xml="http://www.w3.org/XML/1998/namespace" version="1.1" x="0px" y="0px" gorn="0" width="1.59in" height="0.511986in" enable-background="new 0 0 114.48 36.863"  viewBox="0 0 114.48 36.863" id="Ebene_1" xml:space="preserve">
    <desc >
        <referenceFile >7-segment-4digit_Cathode_breadboard.svg</referenceFile>
    </desc>
    <metadata  id="metadata98">
        <rdf:RDF xmlns:rdf="http://www.w3.org/1999/02/22-rdf-syntax-ns#">
            <cc:Work xmlns:rdf="http://www.w3.org/1999/02/22-rdf-syntax-ns#" xmlns:cc="http://creativecommons.org/ns#" rdf:about="">
                <dc:format xmlns:dc="http://purl.org/dc/elements/1.1/">image/svg+xml</dc:format>
                <dc:type xmlns:rdf="http://www.w3.org/1999/02/22-rdf-syntax-ns#" xmlns:dc="http://purl.org/dc/elements/1.1/" rdf:resource="http://purl.org/dc/dcmitype/StillImage"/>
                <dc:title xmlns:dc="http://purl.org/dc/elements/1.1/"/>
            </cc:Work>
        </rdf:RDF>
    </metadata>
    <defs  id="defs96"/>
    <g gorn="0.3"  id="breadboard">
        <g  transform="matrix(0.95936487,0,0,1,7.2661041,0)">
            <g >
                <g >
                    <g >
                        <g >
                            <g gorn="0.3.0.0.0.0.0.0"  id="g3212">
                                <circle cy="32.832001" d="m 34.010001,32.832001 c 0,1.088001 -0.881999,1.97 -1.97,1.97 -1.088001,0 -1.97,-0.881999 -1.97,-1.97 0,-1.088001 0.881999,-1.97 1.97,-1.97 1.088001,0 1.97,0.881999 1.97,1.97 z" stroke="#9a916c" gorn="0.3.0.0.0.0.0.0.0" stroke-width="0.48980001"  fill="none" id="connector1pin" cx="32.040001" r="1.97"/>
                                <circle cy="32.832001" d="m 41.210002,32.832001 c 0,1.088001 -0.881999,1.97 -1.97,1.97 -1.088001,0 -1.97,-0.881999 -1.97,-1.97 0,-1.088001 0.881999,-1.97 1.97,-1.97 1.088001,0 1.97,0.881999 1.97,1.97 z" stroke="#9a916c" gorn="0.3.0.0.0.0.0.0.1" stroke-width="0.48980001"  fill="none" id="connector2pin" cx="39.240002" r="1.97"/>
                                <circle cy="32.832001" d="m 48.409999,32.832001 c 0,1.088001 -0.881999,1.97 -1.97,1.97 -1.088001,0 -1.97,-0.881999 -1.97,-1.97 0,-1.088001 0.881999,-1.97 1.97,-1.97 1.088001,0 1.97,0.881999 1.97,1.97 z" stroke="#9a916c" gorn="0.3.0.0.0.0.0.0.2" stroke-width="0.48980001"  fill="none" id="connector3pin" cx="46.439999" r="1.97"/>
                                <circle cy="32.832001" d="m 55.609999,32.832001 c 0,1.088001 -0.881999,1.97 -1.97,1.97 -1.088001,0 -1.97,-0.881999 -1.97,-1.97 0,-1.088001 0.881999,-1.97 1.97,-1.97 1.088001,0 1.97,0.881999 1.97,1.97 z" stroke="#9a916c" gorn="0.3.0.0.0.0.0.0.3" stroke-width="0.48980001"  fill="none" id="connector4pin" cx="53.639999" r="1.97"/>
                                <circle cy="32.832001" d="m 62.81,32.832001 c 0,1.088001 -0.881999,1.97 -1.97,1.97 -1.088001,0 -1.97,-0.881999 -1.97,-1.97 0,-1.088001 0.881999,-1.97 1.97,-1.97 1.088001,0 1.97,0.881999 1.97,1.97 z" stroke="#9a916c" gorn="0.3.0.0.0.0.0.0.4" stroke-width="0.48980001"  fill="none" id="connector5pin" cx="60.84" r="1.97"/>
                                <circle cy="32.832001" d="m 70.010001,32.832001 c 0,1.088001 -0.881999,1.97 -1.97,1.97 -1.088001,0 -1.97,-0.881999 -1.97,-1.97 0,-1.088001 0.881999,-1.97 1.97,-1.97 1.088001,0 1.97,0.881999 1.97,1.97 z" stroke="#9a916c" gorn="0.3.0.0.0.0.0.0.5" stroke-width="0.48980001"  fill="none" id="connector6pin" cx="68.040001" r="1.97"/>
                                <circle cy="4.0320001" d="m 70.010001,4.0320001 c 0,1.0880009 -0.881999,1.97 -1.97,1.97 -1.088001,0 -1.97,-0.8819991 -1.97,-1.97 0,-1.088001 0.881999,-1.9700001 1.97,-1.9700001 1.088001,0 1.97,0.8819991 1.97,1.9700001 z" stroke="#9a916c" gorn="0.3.0.0.0.0.0.0.6" stroke-width="0.48980001"  fill="none" id="connector7pin" cx="68.040001" r="1.97"/>
                                <circle cy="4.0320001" d="m 62.81,4.0320001 c 0,1.0880009 -0.881999,1.97 -1.97,1.97 -1.088001,0 -1.97,-0.8819991 -1.97,-1.97 0,-1.088001 0.881999,-1.9700001 1.97,-1.9700001 1.088001,0 1.97,0.8819991 1.97,1.9700001 z" stroke="#9a916c" gorn="0.3.0.0.0.0.0.0.7" stroke-width="0.48980001"  fill="none" id="connector8pin" cx="60.84" r="1.97"/>
                                <circle cy="4.0320001" d="m 55.609999,4.0320001 c 0,1.0880009 -0.881999,1.97 -1.97,1.97 -1.088001,0 -1.97,-0.8819991 -1.97,-1.97 0,-1.088001 0.881999,-1.9700001 1.97,-1.9700001 1.088001,0 1.97,0.8819991 1.97,1.9700001 z" stroke="#9a916c" gorn="0.3.0.0.0.0.0.0.8" stroke-width="0.48980001"  fill="none" id="connector9pin" cx="53.639999" r="1.97"/>
                                <circle cy="4.0320001" d="m 48.409999,4.0320001 c 0,1.0880009 -0.881999,1.97 -1.97,1.97 -1.088001,0 -1.97,-0.8819991 -1.97,-1.97 0,-1.088001 0.881999,-1.9700001 1.97,-1.9700001 1.088001,0 1.97,0.8819991 1.97,1.9700001 z" stroke="#9a916c" gorn="0.3.0.0.0.0.0.0.9" stroke-width="0.48980001"  fill="none" id="connector10pin" cx="46.439999" r="1.97"/>
                                <circle cy="4.0320001" d="m 41.210002,4.0320001 c 0,1.0880009 -0.881999,1.97 -1.97,1.97 -1.088001,0 -1.97,-0.8819991 -1.97,-1.97 0,-1.088001 0.881999,-1.9700001 1.97,-1.9700001 1.088001,0 1.97,0.8819991 1.97,1.9700001 z" stroke="#9a916c" gorn="0.3.0.0.0.0.0.0.10" stroke-width="0.48980001"  fill="none" id="connector11pin" cx="39.240002" r="1.97"/>
                                <circle cy="4.0320001" d="m 34.010001,4.0320001 c 0,1.0880009 -0.881999,1.97 -1.97,1.97 -1.088001,0 -1.97,-0.8819991 -1.97,-1.97 0,-1.088001 0.881999,-1.9700001 1.97,-1.9700001 1.088001,0 1.97,0.8819991 1.97,1.9700001 z" stroke="#9a916c" gorn="0.3.0.0.0.0.0.0.11" stroke-width="0.48980001"  fill="none" id="connector12pin" cx="32.040001" r="1.97"/>
                            </g>
                        </g>
                    </g>
                </g>
            </g>
        </g>
        <polygon points="0,0 113.365,0 114.48,1 114.48,36.864 1,36.864 0,35.557  " gorn="0.3.1"  fill="#323232" id="polygon18"/>
        <polygon points="9.718,3.491 22.16,3.491 22.989,4.319 21.329,6.808 10.545,6.808 8.889,4.319  " gorn="0.3.2"  fill="#646464" id="polygon20"/>
        <polygon points="23.819,5.148 24.648,6.808 22.989,15.934 21.329,17.591 19.672,15.934 21.329,7.636  " gorn="0.3.3"  fill="#EF1818" id="polygon22"/>
        <polygon points="21.329,18.42 22.16,20.078 20.501,29.204 18.842,30.863 17.183,29.204 18.842,20.911  " gorn="0.3.4"  fill="#EF1818" id="polygon24"/>
        <polygon points="17.183,32.522 4.74,32.522 3.91,31.69 5.569,29.204 16.354,29.204 18.012,31.692  " gorn="0.3.5"  fill="#646464" id="polygon26"/>
        <polygon points="3.08,30.863 2.252,29.204 3.91,20.078 5.569,18.42 7.227,20.078 5.569,28.373  " gorn="0.3.6"  fill="#EF1818" id="polygon28"/>
        <polygon points="5.569,17.591 4.74,15.934 6.4,6.808 8.057,5.148 9.718,6.808 8.057,15.104  " gorn="0.3.7"  fill="#EF1818" id="polygon30"/>
        <polyline points="6.4,17.591 8.057,15.934 18.842,15.934 20.501,17.591 18.842,19.25 8.057,19.25  " gorn="0.3.8"  fill="#EF1818" id="polyline32"/>
        <circle cy="30.859" gorn="0.3.9"  fill="#646464" id="circle34" cx="22.634" r="1.748"/>
        <polygon points="38.506,3.491 50.948,3.491 51.777,4.319 50.117,6.808 39.333,6.808 37.677,4.319  " gorn="0.3.10"  fill="#EF1818" id="polygon36"/>
        <polygon points="52.607,5.148 53.436,6.808 51.777,15.934 50.117,17.591 48.46,15.934 50.117,7.636  " gorn="0.3.11"  fill="#EF1818" id="polygon38"/>
        <polygon points="50.117,18.42 50.948,20.078 49.289,29.204 47.63,30.863 45.971,29.204 47.63,20.911  " gorn="0.3.12"  fill="#EF1818" id="polygon40"/>
        <polygon points="45.971,32.522 33.528,32.522 32.698,31.69 34.357,29.204 45.142,29.204 46.8,31.692  " gorn="0.3.13"  fill="#646464" id="polygon42"/>
        <polygon points="31.868,30.863 31.04,29.204 32.698,20.078 34.357,18.42 36.015,20.078 34.357,28.373  " gorn="0.3.14"  fill="#EF1818" id="polygon44"/>
        <polygon points="34.357,17.591 33.528,15.934 35.188,6.808 36.845,5.148 38.506,6.808 36.845,15.104  " gorn="0.3.15"  fill="#EF1818" id="polygon46"/>
        <polyline points="35.188,17.591 36.845,15.934 47.63,15.934 49.289,17.591 47.63,19.25 36.845,19.25  " gorn="0.3.16"  fill="#EF1818" id="polyline48"/>
        <circle cy="30.859" gorn="0.3.17"  fill="#646464" id="circle50" cx="51.422" r="1.748"/>
        <polygon points="67.305,3.491 79.748,3.491 80.577,4.319 78.917,6.808 68.133,6.808 66.476,4.319  " gorn="0.3.18"  fill="#646464" id="polygon58"/>
        <polygon points="81.406,5.148 82.236,6.808 80.577,15.934 78.917,17.591 77.26,15.934 78.917,7.636  " gorn="0.3.19"  fill="#646464" id="polygon60"/>
        <polygon points="78.917,18.42 79.748,20.078 78.089,29.204 76.429,30.863 74.771,29.204 76.429,20.911  " gorn="0.3.20"  fill="#646464" id="polygon62"/>
        <polygon points="74.771,32.522 62.328,32.522 61.498,31.69 63.157,29.204 73.941,29.204 75.599,31.692  " gorn="0.3.21"  fill="#EF1818" id="polygon64"/>
        <polygon points="60.668,30.863 59.84,29.204 61.498,20.078 63.157,18.42 64.815,20.078 63.157,28.373  " gorn="0.3.22"  fill="#EF1818" id="polygon66"/>
        <polygon points="63.157,17.591 62.328,15.934 63.988,6.808 65.645,5.148 67.305,6.808 65.645,15.104  " gorn="0.3.23"  fill="#EF1818" id="polygon68"/>
        <polyline points="63.988,17.591 65.645,15.934 76.429,15.934 78.089,17.591 76.429,19.25 65.645,19.25  " gorn="0.3.24"  fill="#646464" id="polyline70"/>
        <circle cy="30.859" gorn="0.3.25"  fill="#646464" id="circle72" cx="80.222" r="1.748"/>
        <polygon points="96.18,3.491 108.623,3.491 109.452,4.319 107.792,6.808 97.008,6.808 95.351,4.319  " gorn="0.3.26"  fill="#EF1818" id="polygon74"/>
        <polygon points="110.281,5.148 111.111,6.808 109.452,15.934 107.792,17.591 106.135,15.934 107.792,7.636  " gorn="0.3.27"  fill="#EF1818" id="polygon76"/>
        <polygon points="107.792,18.42 108.623,20.078 106.964,29.204 105.304,30.863 103.646,29.204 105.304,20.911  " gorn="0.3.28"  fill="#EF1818" id="polygon78"/>
        <polygon points="103.646,32.522 91.203,32.522 90.373,31.69 92.032,29.204 102.816,29.204 104.474,31.692  " gorn="0.3.29"  fill="#EF1818" id="polygon80"/>
        <polygon points="89.543,30.863 88.715,29.204 90.373,20.078 92.032,18.42 93.69,20.078 92.032,28.373  " gorn="0.3.30"  fill="#EF1818" id="polygon82"/>
        <polygon points="92.032,17.591 91.203,15.934 92.863,6.808 94.52,5.148 96.18,6.808 94.52,15.104  " gorn="0.3.31"  fill="#EF1818" id="polygon84"/>
        <polyline points="92.863,17.591 94.52,15.934 105.304,15.934 106.964,17.591 105.304,19.25 94.52,19.25  " gorn="0.3.32"  fill="#646464" id="polyline86"/>
        <circle cy="30.859" gorn="0.3.33"  fill="#646464" id="circle88" cx="109.097" r="1.748"/>
        <polygon points="113.48,35.557 0,35.557 1,36.864 114.48,36.864  " gorn="0.3.34"  fill="#C7C7C7" id="polygon90"/>
        <polygon points="113.365,35.557 114.48,36.864 114.48,1 113.365,0  " gorn="0.3.35"  fill="#AAAAAA" id="polygon92"/>
    </g>
</svg>
